<?xml version="1.0" encoding="utf-8"?>
<!-- Generator: Adobe Illustrator 25.0.1, SVG Export Plug-In . SVG Version: 6.00 Build 0)  -->
<svg version="1.1" id="Layer_1" xmlns="http://www.w3.org/2000/svg" xmlns:xlink="http://www.w3.org/1999/xlink" x="0px" y="0px"
	 viewBox="0 0 249.8 1437.3" style="enable-background:new 0 0 249.8 1437.3;" xml:space="preserve">
<style type="text/css">
	.st0{fill:#CCCCCC;stroke:#000000;stroke-width:0.3584;stroke-miterlimit:10;}
	.st1{fill:#00EFA5;stroke:#C6C6C6;stroke-width:0.425;stroke-miterlimit:10;}
</style>
<g>
	<g>
		<path class="st0" d="M148,600.6v335c-8.2,33.6-16.3,67.2-24.5,100.8c-9-33.6-18-67.2-27-100.8c0-111.7,0-223.4,0-335"/>
	</g>
	<rect x="104.1" y="671" class="st1" width="4.6" height="4.6"/>
	<rect x="108.7" y="671" class="st1" width="4.6" height="4.6"/>
	<rect x="113.3" y="671" class="st1" width="4.6" height="4.6"/>
	<rect x="117.9" y="671" class="st1" width="4.6" height="4.6"/>
	<rect x="122.5" y="671" class="st1" width="4.6" height="4.6"/>
	<rect x="127" y="671" class="st1" width="4.6" height="4.6"/>
	<rect x="131.6" y="671" class="st1" width="4.6" height="4.6"/>
	<rect x="136.2" y="671" class="st1" width="4.6" height="4.6"/>
	<rect x="104.1" y="675.5" class="st1" width="4.6" height="4.6"/>
	<rect x="108.7" y="675.5" class="st1" width="4.6" height="4.6"/>
	<rect x="113.3" y="675.5" class="st1" width="4.6" height="4.6"/>
	<rect x="117.9" y="675.5" class="st1" width="4.6" height="4.6"/>
	<rect x="122.5" y="675.5" class="st1" width="4.6" height="4.6"/>
	<rect x="127" y="675.5" class="st1" width="4.6" height="4.6"/>
	<rect x="131.6" y="675.5" class="st1" width="4.6" height="4.6"/>
	<rect x="136.2" y="675.5" class="st1" width="4.6" height="4.6"/>
	<rect x="104.1" y="680.1" class="st1" width="4.6" height="4.6"/>
	<rect x="108.7" y="680.1" class="st1" width="4.6" height="4.6"/>
	<rect x="113.3" y="680.1" class="st1" width="4.6" height="4.6"/>
	<rect x="117.9" y="680.1" class="st1" width="4.6" height="4.6"/>
	<rect x="122.5" y="680.1" class="st1" width="4.6" height="4.6"/>
	<rect x="127" y="680.1" class="st1" width="4.6" height="4.6"/>
	<rect x="131.6" y="680.1" class="st1" width="4.6" height="4.6"/>
	<rect x="136.2" y="680.1" class="st1" width="4.6" height="4.6"/>
	<rect x="104.1" y="684.7" class="st1" width="4.6" height="4.6"/>
	<rect x="108.7" y="684.7" class="st1" width="4.6" height="4.6"/>
	<rect x="113.3" y="684.7" class="st1" width="4.6" height="4.6"/>
	<rect x="117.9" y="684.7" class="st1" width="4.6" height="4.6"/>
	<rect x="122.5" y="684.7" class="st1" width="4.6" height="4.6"/>
	<rect x="127" y="684.7" class="st1" width="4.6" height="4.6"/>
	<rect x="131.6" y="684.7" class="st1" width="4.6" height="4.6"/>
	<rect x="136.2" y="684.7" class="st1" width="4.6" height="4.6"/>
	<rect x="104.1" y="689.2" class="st1" width="4.6" height="4.6"/>
	<rect x="108.7" y="689.2" class="st1" width="4.6" height="4.6"/>
	<rect x="113.3" y="689.2" class="st1" width="4.6" height="4.6"/>
	<rect x="117.9" y="689.2" class="st1" width="4.6" height="4.6"/>
	<rect x="122.5" y="689.2" class="st1" width="4.6" height="4.6"/>
	<rect x="127" y="689.2" class="st1" width="4.6" height="4.6"/>
	<rect x="131.6" y="689.2" class="st1" width="4.6" height="4.6"/>
	<rect x="136.2" y="689.2" class="st1" width="4.6" height="4.6"/>
	<rect x="104.1" y="693.8" class="st1" width="4.6" height="4.6"/>
	<rect x="108.7" y="693.8" class="st1" width="4.6" height="4.6"/>
	<rect x="113.3" y="693.8" class="st1" width="4.6" height="4.6"/>
	<rect x="117.9" y="693.8" class="st1" width="4.6" height="4.6"/>
	<rect x="122.5" y="693.8" class="st1" width="4.6" height="4.6"/>
	<rect x="127" y="693.8" class="st1" width="4.6" height="4.6"/>
	<rect x="131.6" y="693.8" class="st1" width="4.6" height="4.6"/>
	<rect x="136.2" y="693.8" class="st1" width="4.6" height="4.6"/>
	<rect x="104.1" y="698.3" class="st1" width="4.6" height="4.6"/>
	<rect x="108.7" y="698.3" class="st1" width="4.6" height="4.6"/>
	<rect x="113.3" y="698.3" class="st1" width="4.6" height="4.6"/>
	<rect x="117.9" y="698.3" class="st1" width="4.6" height="4.6"/>
	<rect x="122.5" y="698.3" class="st1" width="4.6" height="4.6"/>
	<rect x="127" y="698.3" class="st1" width="4.6" height="4.6"/>
	<rect x="131.6" y="698.3" class="st1" width="4.6" height="4.6"/>
	<rect x="136.2" y="698.3" class="st1" width="4.6" height="4.6"/>
	<rect x="104.1" y="702.9" class="st1" width="4.6" height="4.6"/>
	<rect x="108.7" y="702.9" class="st1" width="4.6" height="4.6"/>
	<rect x="113.3" y="702.9" class="st1" width="4.6" height="4.6"/>
	<rect x="117.9" y="702.9" class="st1" width="4.6" height="4.6"/>
	<rect x="122.5" y="702.9" class="st1" width="4.6" height="4.6"/>
	<rect x="127" y="702.9" class="st1" width="4.6" height="4.6"/>
	<rect x="131.6" y="702.9" class="st1" width="4.6" height="4.6"/>
	<rect x="136.2" y="702.9" class="st1" width="4.6" height="4.6"/>
	<rect x="104.1" y="707.4" class="st1" width="4.6" height="4.6"/>
	<rect x="108.7" y="707.4" class="st1" width="4.6" height="4.6"/>
	<rect x="113.3" y="707.4" class="st1" width="4.6" height="4.6"/>
	<rect x="117.9" y="707.4" class="st1" width="4.6" height="4.6"/>
	<rect x="122.5" y="707.4" class="st1" width="4.6" height="4.6"/>
	<rect x="127" y="707.4" class="st1" width="4.6" height="4.6"/>
	<rect x="131.6" y="707.4" class="st1" width="4.6" height="4.6"/>
	<rect x="136.2" y="707.4" class="st1" width="4.6" height="4.6"/>
	<rect x="104.1" y="712" class="st1" width="4.6" height="4.6"/>
	<rect x="108.7" y="712" class="st1" width="4.6" height="4.6"/>
	<rect x="113.3" y="712" class="st1" width="4.6" height="4.6"/>
	<rect x="117.9" y="712" class="st1" width="4.6" height="4.6"/>
	<rect x="122.5" y="712" class="st1" width="4.6" height="4.6"/>
	<rect x="127" y="712" class="st1" width="4.6" height="4.6"/>
	<rect x="131.6" y="712" class="st1" width="4.6" height="4.6"/>
	<rect x="136.2" y="712" class="st1" width="4.6" height="4.6"/>
	<rect x="104.1" y="716.6" class="st1" width="4.6" height="4.6"/>
	<rect x="108.7" y="716.6" class="st1" width="4.6" height="4.6"/>
	<rect x="113.3" y="716.6" class="st1" width="4.6" height="4.6"/>
	<rect x="117.9" y="716.6" class="st1" width="4.6" height="4.6"/>
	<rect x="122.5" y="716.6" class="st1" width="4.6" height="4.6"/>
	<rect x="127" y="716.6" class="st1" width="4.6" height="4.6"/>
	<rect x="131.6" y="716.6" class="st1" width="4.6" height="4.6"/>
	<rect x="136.2" y="716.6" class="st1" width="4.6" height="4.6"/>
	<rect x="104.1" y="721.1" class="st1" width="4.6" height="4.6"/>
	<rect x="108.7" y="721.1" class="st1" width="4.6" height="4.6"/>
	<rect x="113.3" y="721.1" class="st1" width="4.6" height="4.6"/>
	<rect x="117.9" y="721.1" class="st1" width="4.6" height="4.6"/>
	<rect x="122.5" y="721.1" class="st1" width="4.6" height="4.6"/>
	<rect x="127" y="721.1" class="st1" width="4.6" height="4.6"/>
	<rect x="131.6" y="721.1" class="st1" width="4.6" height="4.6"/>
	<rect x="136.2" y="721.1" class="st1" width="4.6" height="4.6"/>
	<rect x="104.1" y="725.7" class="st1" width="4.6" height="4.6"/>
	<rect x="108.7" y="725.7" class="st1" width="4.6" height="4.6"/>
	<rect x="113.3" y="725.7" class="st1" width="4.6" height="4.6"/>
	<rect x="117.9" y="725.7" class="st1" width="4.6" height="4.6"/>
	<rect x="122.5" y="725.7" class="st1" width="4.6" height="4.6"/>
	<rect x="127" y="725.7" class="st1" width="4.6" height="4.6"/>
	<rect x="131.6" y="725.7" class="st1" width="4.6" height="4.6"/>
	<rect x="136.2" y="725.7" class="st1" width="4.6" height="4.6"/>
	<rect x="104.1" y="730.2" class="st1" width="4.6" height="4.6"/>
	<rect x="108.7" y="730.2" class="st1" width="4.6" height="4.6"/>
	<rect x="113.3" y="730.2" class="st1" width="4.6" height="4.6"/>
	<rect x="117.9" y="730.2" class="st1" width="4.6" height="4.6"/>
	<rect x="122.5" y="730.2" class="st1" width="4.6" height="4.6"/>
	<rect x="127" y="730.2" class="st1" width="4.6" height="4.6"/>
	<rect x="131.6" y="730.2" class="st1" width="4.6" height="4.6"/>
	<rect x="136.2" y="730.2" class="st1" width="4.6" height="4.6"/>
	<rect x="104.1" y="734.8" class="st1" width="4.6" height="4.6"/>
	<rect x="108.7" y="734.8" class="st1" width="4.6" height="4.6"/>
	<rect x="113.3" y="734.8" class="st1" width="4.6" height="4.6"/>
	<rect x="117.9" y="734.8" class="st1" width="4.6" height="4.6"/>
	<rect x="122.5" y="734.8" class="st1" width="4.6" height="4.6"/>
	<rect x="127" y="734.8" class="st1" width="4.6" height="4.6"/>
	<rect x="131.6" y="734.8" class="st1" width="4.6" height="4.6"/>
	<rect x="136.2" y="734.8" class="st1" width="4.6" height="4.6"/>
	<rect x="104.1" y="739.4" class="st1" width="4.6" height="4.6"/>
	<rect x="108.7" y="739.4" class="st1" width="4.6" height="4.6"/>
	<rect x="113.3" y="739.4" class="st1" width="4.6" height="4.6"/>
	<rect x="117.9" y="739.4" class="st1" width="4.6" height="4.6"/>
	<rect x="122.5" y="739.4" class="st1" width="4.6" height="4.6"/>
	<rect x="127" y="739.4" class="st1" width="4.6" height="4.6"/>
	<rect x="131.6" y="739.4" class="st1" width="4.6" height="4.6"/>
	<rect x="136.2" y="739.4" class="st1" width="4.6" height="4.6"/>
	<rect x="104.1" y="743.9" class="st1" width="4.6" height="4.6"/>
	<rect x="108.7" y="743.9" class="st1" width="4.6" height="4.6"/>
	<rect x="113.3" y="743.9" class="st1" width="4.6" height="4.6"/>
	<rect x="117.9" y="743.9" class="st1" width="4.6" height="4.6"/>
	<rect x="122.5" y="743.9" class="st1" width="4.6" height="4.6"/>
	<rect x="127" y="743.9" class="st1" width="4.6" height="4.6"/>
	<rect x="131.6" y="743.9" class="st1" width="4.6" height="4.6"/>
	<rect x="136.2" y="743.9" class="st1" width="4.6" height="4.6"/>
	<rect x="104.1" y="748.5" class="st1" width="4.6" height="4.6"/>
	<rect x="108.7" y="748.5" class="st1" width="4.6" height="4.6"/>
	<rect x="113.3" y="748.5" class="st1" width="4.6" height="4.6"/>
	<rect x="117.9" y="748.5" class="st1" width="4.6" height="4.6"/>
	<rect x="122.5" y="748.5" class="st1" width="4.6" height="4.6"/>
	<rect x="127" y="748.5" class="st1" width="4.6" height="4.6"/>
	<rect x="131.6" y="748.5" class="st1" width="4.6" height="4.6"/>
	<rect x="136.2" y="748.5" class="st1" width="4.6" height="4.6"/>
	<rect x="104.1" y="753" class="st1" width="4.6" height="4.6"/>
	<rect x="108.7" y="753" class="st1" width="4.6" height="4.6"/>
	<rect x="113.3" y="753" class="st1" width="4.6" height="4.6"/>
	<rect x="117.9" y="753" class="st1" width="4.6" height="4.6"/>
	<rect x="122.5" y="753" class="st1" width="4.6" height="4.6"/>
	<rect x="127" y="753" class="st1" width="4.6" height="4.6"/>
	<rect x="131.6" y="753" class="st1" width="4.6" height="4.6"/>
	<rect x="136.2" y="753" class="st1" width="4.6" height="4.6"/>
	<rect x="104.1" y="757.6" class="st1" width="4.6" height="4.6"/>
	<rect x="108.7" y="757.6" class="st1" width="4.6" height="4.6"/>
	<rect x="113.3" y="757.6" class="st1" width="4.6" height="4.6"/>
	<rect x="117.9" y="757.6" class="st1" width="4.6" height="4.6"/>
	<rect x="122.5" y="757.6" class="st1" width="4.6" height="4.6"/>
	<rect x="127" y="757.6" class="st1" width="4.6" height="4.6"/>
	<rect x="131.6" y="757.6" class="st1" width="4.6" height="4.6"/>
	<rect x="136.2" y="757.6" class="st1" width="4.6" height="4.6"/>
	<rect x="104.1" y="762.1" class="st1" width="4.6" height="4.6"/>
	<rect x="108.7" y="762.1" class="st1" width="4.6" height="4.6"/>
	<rect x="113.3" y="762.1" class="st1" width="4.6" height="4.6"/>
	<rect x="117.9" y="762.1" class="st1" width="4.6" height="4.6"/>
	<rect x="122.5" y="762.1" class="st1" width="4.6" height="4.6"/>
	<rect x="127" y="762.1" class="st1" width="4.6" height="4.6"/>
	<rect x="131.6" y="762.1" class="st1" width="4.6" height="4.6"/>
	<rect x="136.2" y="762.1" class="st1" width="4.6" height="4.6"/>
	<rect x="104.1" y="766.7" class="st1" width="4.6" height="4.6"/>
	<rect x="108.7" y="766.7" class="st1" width="4.6" height="4.6"/>
	<rect x="113.3" y="766.7" class="st1" width="4.6" height="4.6"/>
	<rect x="117.9" y="766.7" class="st1" width="4.6" height="4.6"/>
	<rect x="122.5" y="766.7" class="st1" width="4.6" height="4.6"/>
	<rect x="127" y="766.7" class="st1" width="4.6" height="4.6"/>
	<rect x="131.6" y="766.7" class="st1" width="4.6" height="4.6"/>
	<rect x="136.2" y="766.7" class="st1" width="4.6" height="4.6"/>
	<rect x="104.1" y="771.3" class="st1" width="4.6" height="4.6"/>
	<rect x="108.7" y="771.3" class="st1" width="4.6" height="4.6"/>
	<rect x="113.3" y="771.3" class="st1" width="4.6" height="4.6"/>
	<rect x="117.9" y="771.3" class="st1" width="4.6" height="4.6"/>
	<rect x="122.5" y="771.3" class="st1" width="4.6" height="4.6"/>
	<rect x="127" y="771.3" class="st1" width="4.6" height="4.6"/>
	<rect x="131.6" y="771.3" class="st1" width="4.6" height="4.6"/>
	<rect x="136.2" y="771.3" class="st1" width="4.6" height="4.6"/>
	<rect x="104.1" y="775.8" class="st1" width="4.6" height="4.6"/>
	<rect x="108.7" y="775.8" class="st1" width="4.6" height="4.6"/>
	<rect x="113.3" y="775.8" class="st1" width="4.6" height="4.6"/>
	<rect x="117.9" y="775.8" class="st1" width="4.6" height="4.6"/>
	<rect x="122.5" y="775.8" class="st1" width="4.6" height="4.6"/>
	<rect x="127" y="775.8" class="st1" width="4.6" height="4.6"/>
	<rect x="131.6" y="775.8" class="st1" width="4.6" height="4.6"/>
	<rect x="136.2" y="775.8" class="st1" width="4.6" height="4.6"/>
	<rect x="104.1" y="780.4" class="st1" width="4.6" height="4.6"/>
	<rect x="108.7" y="780.4" class="st1" width="4.6" height="4.6"/>
	<rect x="113.3" y="780.4" class="st1" width="4.6" height="4.6"/>
	<rect x="117.9" y="780.4" class="st1" width="4.6" height="4.6"/>
	<rect x="122.5" y="780.4" class="st1" width="4.6" height="4.6"/>
	<rect x="127" y="780.4" class="st1" width="4.6" height="4.6"/>
	<rect x="131.6" y="780.4" class="st1" width="4.6" height="4.6"/>
	<rect x="136.2" y="780.4" class="st1" width="4.6" height="4.6"/>
	<rect x="104.1" y="784.9" class="st1" width="4.6" height="4.6"/>
	<rect x="108.7" y="784.9" class="st1" width="4.6" height="4.6"/>
	<rect x="113.3" y="784.9" class="st1" width="4.6" height="4.6"/>
	<rect x="117.9" y="784.9" class="st1" width="4.6" height="4.6"/>
	<rect x="122.5" y="784.9" class="st1" width="4.6" height="4.6"/>
	<rect x="127" y="784.9" class="st1" width="4.6" height="4.6"/>
	<rect x="131.6" y="784.9" class="st1" width="4.6" height="4.6"/>
	<rect x="136.2" y="784.9" class="st1" width="4.6" height="4.6"/>
	<rect x="104.1" y="789.5" class="st1" width="4.6" height="4.6"/>
	<rect x="108.7" y="789.5" class="st1" width="4.6" height="4.6"/>
	<rect x="113.3" y="789.5" class="st1" width="4.6" height="4.6"/>
	<rect x="117.9" y="789.5" class="st1" width="4.6" height="4.6"/>
	<rect x="122.5" y="789.5" class="st1" width="4.6" height="4.6"/>
	<rect x="127" y="789.5" class="st1" width="4.6" height="4.6"/>
	<rect x="131.6" y="789.5" class="st1" width="4.6" height="4.6"/>
	<rect x="136.2" y="789.5" class="st1" width="4.6" height="4.6"/>
	<rect x="104.1" y="794.1" class="st1" width="4.6" height="4.6"/>
	<rect x="108.7" y="794.1" class="st1" width="4.6" height="4.6"/>
	<rect x="113.3" y="794.1" class="st1" width="4.6" height="4.6"/>
	<rect x="117.9" y="794.1" class="st1" width="4.6" height="4.6"/>
	<rect x="122.5" y="794.1" class="st1" width="4.6" height="4.6"/>
	<rect x="127" y="794.1" class="st1" width="4.6" height="4.6"/>
	<rect x="131.6" y="794.1" class="st1" width="4.6" height="4.6"/>
	<rect x="136.2" y="794.1" class="st1" width="4.6" height="4.6"/>
	<rect x="104.1" y="798.6" class="st1" width="4.6" height="4.6"/>
	<rect x="108.7" y="798.6" class="st1" width="4.6" height="4.6"/>
	<rect x="113.3" y="798.6" class="st1" width="4.6" height="4.6"/>
	<rect x="117.9" y="798.6" class="st1" width="4.6" height="4.6"/>
	<rect x="122.5" y="798.6" class="st1" width="4.6" height="4.6"/>
	<rect x="127" y="798.6" class="st1" width="4.6" height="4.6"/>
	<rect x="131.6" y="798.6" class="st1" width="4.6" height="4.6"/>
	<rect x="136.2" y="798.6" class="st1" width="4.6" height="4.6"/>
	<rect x="104.1" y="803.2" class="st1" width="4.6" height="4.6"/>
	<rect x="108.7" y="803.2" class="st1" width="4.6" height="4.6"/>
	<rect x="113.3" y="803.2" class="st1" width="4.6" height="4.6"/>
	<rect x="117.9" y="803.2" class="st1" width="4.6" height="4.6"/>
	<rect x="122.5" y="803.2" class="st1" width="4.6" height="4.6"/>
	<rect x="127" y="803.2" class="st1" width="4.6" height="4.6"/>
	<rect x="131.6" y="803.2" class="st1" width="4.6" height="4.6"/>
	<rect x="136.2" y="803.2" class="st1" width="4.6" height="4.6"/>
	<rect x="104.1" y="807.7" class="st1" width="4.6" height="4.6"/>
	<rect x="108.7" y="807.7" class="st1" width="4.6" height="4.6"/>
	<rect x="113.3" y="807.7" class="st1" width="4.6" height="4.6"/>
	<rect x="117.9" y="807.7" class="st1" width="4.6" height="4.6"/>
	<rect x="122.5" y="807.7" class="st1" width="4.6" height="4.6"/>
	<rect x="127" y="807.7" class="st1" width="4.6" height="4.6"/>
	<rect x="131.6" y="807.7" class="st1" width="4.6" height="4.6"/>
	<rect x="136.2" y="807.7" class="st1" width="4.6" height="4.6"/>
	<rect x="104.1" y="812.3" class="st1" width="4.6" height="4.6"/>
	<rect x="108.7" y="812.3" class="st1" width="4.6" height="4.6"/>
	<rect x="113.3" y="812.3" class="st1" width="4.6" height="4.6"/>
	<rect x="117.9" y="812.3" class="st1" width="4.6" height="4.6"/>
	<rect x="122.5" y="812.3" class="st1" width="4.6" height="4.6"/>
	<rect x="127" y="812.3" class="st1" width="4.6" height="4.6"/>
	<rect x="131.6" y="812.3" class="st1" width="4.6" height="4.6"/>
	<rect x="136.2" y="812.3" class="st1" width="4.6" height="4.6"/>
	<rect x="104.1" y="816.8" class="st1" width="4.6" height="4.6"/>
	<rect x="108.7" y="816.8" class="st1" width="4.6" height="4.6"/>
	<rect x="113.3" y="816.8" class="st1" width="4.6" height="4.6"/>
	<rect x="117.9" y="816.8" class="st1" width="4.6" height="4.6"/>
	<rect x="122.5" y="816.8" class="st1" width="4.6" height="4.6"/>
	<rect x="127" y="816.8" class="st1" width="4.6" height="4.6"/>
	<rect x="131.6" y="816.8" class="st1" width="4.6" height="4.6"/>
	<rect x="136.2" y="816.8" class="st1" width="4.6" height="4.6"/>
	<rect x="104.1" y="821.4" class="st1" width="4.6" height="4.6"/>
	<rect x="108.7" y="821.4" class="st1" width="4.6" height="4.6"/>
	<rect x="113.3" y="821.4" class="st1" width="4.6" height="4.6"/>
	<rect x="117.9" y="821.4" class="st1" width="4.6" height="4.6"/>
	<rect x="122.5" y="821.4" class="st1" width="4.6" height="4.6"/>
	<rect x="127" y="821.4" class="st1" width="4.6" height="4.6"/>
	<rect x="131.6" y="821.4" class="st1" width="4.6" height="4.6"/>
	<rect x="136.2" y="821.4" class="st1" width="4.6" height="4.6"/>
	<rect x="104.1" y="826" class="st1" width="4.6" height="4.6"/>
	<rect x="108.7" y="826" class="st1" width="4.6" height="4.6"/>
	<rect x="113.3" y="826" class="st1" width="4.6" height="4.6"/>
	<rect x="117.9" y="826" class="st1" width="4.6" height="4.6"/>
	<rect x="122.5" y="826" class="st1" width="4.6" height="4.6"/>
	<rect x="127" y="826" class="st1" width="4.6" height="4.6"/>
	<rect x="131.6" y="826" class="st1" width="4.6" height="4.6"/>
	<rect x="136.2" y="826" class="st1" width="4.6" height="4.6"/>
	<rect x="104.1" y="830.5" class="st1" width="4.6" height="4.6"/>
	<rect x="108.7" y="830.5" class="st1" width="4.6" height="4.6"/>
	<rect x="113.3" y="830.5" class="st1" width="4.6" height="4.6"/>
	<rect x="117.9" y="830.5" class="st1" width="4.6" height="4.6"/>
	<rect x="122.5" y="830.5" class="st1" width="4.6" height="4.6"/>
	<rect x="127" y="830.5" class="st1" width="4.6" height="4.6"/>
	<rect x="131.6" y="830.5" class="st1" width="4.6" height="4.6"/>
	<rect x="136.2" y="830.5" class="st1" width="4.6" height="4.6"/>
	<rect x="104.1" y="835.1" class="st1" width="4.6" height="4.6"/>
	<rect x="108.7" y="835.1" class="st1" width="4.6" height="4.6"/>
	<rect x="113.3" y="835.1" class="st1" width="4.6" height="4.6"/>
	<rect x="117.9" y="835.1" class="st1" width="4.6" height="4.6"/>
	<rect x="122.5" y="835.1" class="st1" width="4.6" height="4.6"/>
	<rect x="127" y="835.1" class="st1" width="4.6" height="4.6"/>
	<rect x="131.6" y="835.1" class="st1" width="4.6" height="4.6"/>
	<rect x="136.2" y="835.1" class="st1" width="4.6" height="4.6"/>
	<rect x="104.1" y="839.6" class="st1" width="4.6" height="4.6"/>
	<rect x="108.7" y="839.6" class="st1" width="4.6" height="4.6"/>
	<rect x="113.3" y="839.6" class="st1" width="4.6" height="4.6"/>
	<rect x="117.9" y="839.6" class="st1" width="4.6" height="4.6"/>
	<rect x="122.5" y="839.6" class="st1" width="4.6" height="4.6"/>
	<rect x="127" y="839.6" class="st1" width="4.6" height="4.6"/>
	<rect x="131.6" y="839.6" class="st1" width="4.6" height="4.6"/>
	<rect x="136.2" y="839.6" class="st1" width="4.6" height="4.6"/>
	<rect x="104.1" y="844.2" class="st1" width="4.6" height="4.6"/>
	<rect x="108.7" y="844.2" class="st1" width="4.6" height="4.6"/>
	<rect x="113.3" y="844.2" class="st1" width="4.6" height="4.6"/>
	<rect x="117.9" y="844.2" class="st1" width="4.6" height="4.6"/>
	<rect x="122.5" y="844.2" class="st1" width="4.6" height="4.6"/>
	<rect x="127" y="844.2" class="st1" width="4.6" height="4.6"/>
	<rect x="131.6" y="844.2" class="st1" width="4.6" height="4.6"/>
	<rect x="136.2" y="844.2" class="st1" width="4.6" height="4.6"/>
	<rect x="104.1" y="848.7" class="st1" width="4.6" height="4.6"/>
	<rect x="108.7" y="848.7" class="st1" width="4.6" height="4.6"/>
	<rect x="113.3" y="848.7" class="st1" width="4.6" height="4.6"/>
	<rect x="117.9" y="848.7" class="st1" width="4.6" height="4.6"/>
	<rect x="122.5" y="848.7" class="st1" width="4.6" height="4.6"/>
	<rect x="127" y="848.7" class="st1" width="4.6" height="4.6"/>
	<rect x="131.6" y="848.7" class="st1" width="4.6" height="4.6"/>
	<rect x="136.2" y="848.7" class="st1" width="4.6" height="4.6"/>
	<rect x="104.1" y="853.3" class="st1" width="4.6" height="4.6"/>
	<rect x="108.7" y="853.3" class="st1" width="4.6" height="4.6"/>
	<rect x="113.3" y="853.3" class="st1" width="4.6" height="4.6"/>
	<rect x="117.9" y="853.3" class="st1" width="4.6" height="4.6"/>
	<rect x="122.5" y="853.3" class="st1" width="4.6" height="4.6"/>
	<rect x="127" y="853.3" class="st1" width="4.6" height="4.6"/>
	<rect x="131.6" y="853.3" class="st1" width="4.6" height="4.6"/>
	<rect x="136.2" y="853.3" class="st1" width="4.6" height="4.6"/>
	<rect x="104.1" y="857.9" class="st1" width="4.6" height="4.6"/>
	<rect x="108.7" y="857.9" class="st1" width="4.6" height="4.6"/>
	<rect x="113.3" y="857.9" class="st1" width="4.6" height="4.6"/>
	<rect x="117.9" y="857.9" class="st1" width="4.6" height="4.6"/>
	<rect x="122.5" y="857.9" class="st1" width="4.6" height="4.6"/>
	<rect x="127" y="857.9" class="st1" width="4.6" height="4.6"/>
	<rect x="131.6" y="857.9" class="st1" width="4.6" height="4.6"/>
	<rect x="136.2" y="857.9" class="st1" width="4.6" height="4.6"/>
	<rect x="104.1" y="862.4" class="st1" width="4.6" height="4.6"/>
	<rect x="108.7" y="862.4" class="st1" width="4.6" height="4.6"/>
	<rect x="113.3" y="862.4" class="st1" width="4.6" height="4.6"/>
	<rect x="117.9" y="862.4" class="st1" width="4.6" height="4.6"/>
	<rect x="122.5" y="862.4" class="st1" width="4.6" height="4.6"/>
	<rect x="127" y="862.4" class="st1" width="4.6" height="4.6"/>
	<rect x="131.6" y="862.4" class="st1" width="4.6" height="4.6"/>
	<rect x="136.2" y="862.4" class="st1" width="4.6" height="4.6"/>
	<rect x="104.1" y="867" class="st1" width="4.6" height="4.6"/>
	<rect x="108.7" y="867" class="st1" width="4.6" height="4.6"/>
	<rect x="113.3" y="867" class="st1" width="4.6" height="4.6"/>
	<rect x="117.9" y="867" class="st1" width="4.6" height="4.6"/>
	<rect x="122.5" y="867" class="st1" width="4.6" height="4.6"/>
	<rect x="127" y="867" class="st1" width="4.6" height="4.6"/>
	<rect x="131.6" y="867" class="st1" width="4.6" height="4.6"/>
	<rect x="136.2" y="867" class="st1" width="4.6" height="4.6"/>
	<rect x="104.1" y="871.5" class="st1" width="4.6" height="4.6"/>
	<rect x="108.7" y="871.5" class="st1" width="4.6" height="4.6"/>
	<rect x="113.3" y="871.5" class="st1" width="4.6" height="4.6"/>
	<rect x="117.9" y="871.5" class="st1" width="4.6" height="4.6"/>
	<rect x="122.5" y="871.5" class="st1" width="4.6" height="4.6"/>
	<rect x="127" y="871.5" class="st1" width="4.6" height="4.6"/>
	<rect x="131.6" y="871.5" class="st1" width="4.6" height="4.6"/>
	<rect x="136.2" y="871.5" class="st1" width="4.6" height="4.6"/>
	<rect x="104.1" y="876.1" class="st1" width="4.6" height="4.6"/>
	<rect x="108.7" y="876.1" class="st1" width="4.6" height="4.6"/>
	<rect x="113.3" y="876.1" class="st1" width="4.6" height="4.6"/>
	<rect x="117.9" y="876.1" class="st1" width="4.6" height="4.6"/>
	<rect x="122.5" y="876.1" class="st1" width="4.6" height="4.6"/>
	<rect x="127" y="876.1" class="st1" width="4.6" height="4.6"/>
	<rect x="131.6" y="876.1" class="st1" width="4.6" height="4.6"/>
	<rect x="136.2" y="876.1" class="st1" width="4.6" height="4.6"/>
	<rect x="104.1" y="880.7" class="st1" width="4.6" height="4.6"/>
	<rect x="108.7" y="880.7" class="st1" width="4.6" height="4.6"/>
	<rect x="113.3" y="880.7" class="st1" width="4.6" height="4.6"/>
	<rect x="117.9" y="880.7" class="st1" width="4.6" height="4.6"/>
	<rect x="122.5" y="880.7" class="st1" width="4.6" height="4.6"/>
	<rect x="127" y="880.7" class="st1" width="4.6" height="4.6"/>
	<rect x="131.6" y="880.7" class="st1" width="4.6" height="4.6"/>
	<rect x="136.2" y="880.7" class="st1" width="4.6" height="4.6"/>
	<rect x="104.1" y="885.2" class="st1" width="4.6" height="4.6"/>
	<rect x="108.7" y="885.2" class="st1" width="4.6" height="4.6"/>
	<rect x="113.3" y="885.2" class="st1" width="4.6" height="4.6"/>
	<rect x="117.9" y="885.2" class="st1" width="4.6" height="4.6"/>
	<rect x="122.5" y="885.2" class="st1" width="4.6" height="4.6"/>
	<rect x="127" y="885.2" class="st1" width="4.6" height="4.6"/>
	<rect x="131.6" y="885.2" class="st1" width="4.6" height="4.6"/>
	<rect x="136.2" y="885.2" class="st1" width="4.6" height="4.6"/>
</g>
</svg>
